<svg xmlns="http://www.w3.org/2000/svg" xmlns:xlink="http://www.w3.org/1999/xlink" width="2000" zoomAndPan="magnify" viewBox="0 0 1500 1499.999933" height="2000" preserveAspectRatio="xMidYMid meet" version="1.0"><defs><filter x="0%" y="0%" width="100%" height="100%" id="0b50508a57"><feColorMatrix values="0 0 0 0 1 0 0 0 0 1 0 0 0 0 1 0 0 0 1 0" color-interpolation-filters="sRGB"/></filter><mask id="e174028295"><g filter="url(#0b50508a57)"><rect x="-150" width="1800" fill="#000000" y="-149.999993" height="1799.99992" fill-opacity="0.78"/></g></mask><clipPath id="448c6532dd"><path d="M 0 0 L 575.808594 0 L 575.808594 1500 L 0 1500 Z M 0 0 " clip-rule="nonzero"/></clipPath><clipPath id="569f8de539"><path d="M 211.75 -153.695312 C 155.785156 -165.558594 92.164062 -173.34375 29.71875 -173.34375 C -32.722656 -173.34375 -92.8125 -166.667969 -148.183594 -154.804688 C -149.363281 -154.433594 -150.542969 -154.433594 -151.71875 -154.0625 C -359.671875 -106.605469 -512.835938 18.714844 -515.78125 186.050781 L -515.78125 1604.394531 L 575.808594 1604.394531 L 575.808594 187.105469 C 572.863281 17.972656 422.054688 -107.347656 211.75 -153.695312 Z M 211.75 -153.695312 " clip-rule="nonzero"/></clipPath><clipPath id="5046336ab3"><path d="M 0 0 L 575.808594 0 L 575.808594 1500 L 0 1500 Z M 0 0 " clip-rule="nonzero"/></clipPath><clipPath id="5705d9f51c"><path d="M 211.75 -153.695312 C 155.785156 -165.558594 92.164062 -173.34375 29.71875 -173.34375 C -32.722656 -173.34375 -92.8125 -166.667969 -148.183594 -154.804688 C -149.363281 -154.433594 -150.542969 -154.433594 -151.71875 -154.0625 C -359.671875 -106.605469 -512.835938 18.714844 -515.78125 186.050781 L -515.78125 1604.394531 L 575.808594 1604.394531 L 575.808594 187.105469 C 572.863281 17.972656 422.054688 -107.347656 211.75 -153.695312 Z M 211.75 -153.695312 " clip-rule="nonzero"/></clipPath><clipPath id="cf337e50d5"><rect x="0" width="576" y="0" height="1500"/></clipPath><clipPath id="a89a379472"><rect x="0" width="576" y="0" height="1500"/></clipPath><clipPath id="6a83079b1c"><path d="M 575.820312 150 L 1259.777344 150 L 1259.777344 1500 L 575.820312 1500 Z M 575.820312 150 " clip-rule="nonzero"/></clipPath><clipPath id="d6feb0d071"><path d="M 1259.777344 150 C 887.238281 150 575.820312 457.335938 575.820312 825 C 575.820312 1192.660156 887.238281 1500 1259.777344 1500 Z M 1259.777344 150 " clip-rule="nonzero"/></clipPath><clipPath id="e0f48ae71b"><path d="M 0.820312 0 L 684.777344 0 L 684.777344 1350 L 0.820312 1350 Z M 0.820312 0 " clip-rule="nonzero"/></clipPath><clipPath id="9c16613eec"><path d="M 684.777344 0 C 312.238281 0 0.820312 307.335938 0.820312 675 C 0.820312 1042.660156 312.238281 1350 684.777344 1350 Z M 684.777344 0 " clip-rule="nonzero"/></clipPath><clipPath id="eb132bdd64"><rect x="0" width="685" y="0" height="1350"/></clipPath><mask id="f68d1b566c"><g filter="url(#0b50508a57)"><rect x="-150" width="1800" fill="#000000" y="-149.999993" height="1799.99992" fill-opacity="0.5"/></g></mask><clipPath id="84b5f1467c"><path d="M 0.265625 0 L 1068.765625 0 L 1068.765625 1500 L 0.265625 1500 Z M 0.265625 0 " clip-rule="nonzero"/></clipPath><clipPath id="e7749b576d"><path d="M 712.40625 -153.691406 C 657.628906 -165.554688 595.351562 -173.339844 534.230469 -173.339844 C 473.105469 -173.339844 414.289062 -166.667969 360.085938 -154.800781 C 358.933594 -154.429688 357.777344 -154.429688 356.625 -154.0625 C 153.074219 -106.601562 3.148438 18.71875 0.265625 189.316406 L 0.265625 1751.253906 L 1068.765625 1751.253906 L 1068.765625 190.476562 C 1065.882812 17.976562 918.265625 -107.34375 712.40625 -153.691406 Z M 712.40625 -153.691406 " clip-rule="nonzero"/></clipPath><clipPath id="f725f0d4e5"><path d="M 0.265625 0 L 1068.765625 0 L 1068.765625 1500 L 0.265625 1500 Z M 0.265625 0 " clip-rule="nonzero"/></clipPath><clipPath id="232fd38334"><path d="M 712.40625 -153.691406 C 657.628906 -165.554688 595.351562 -173.339844 534.230469 -173.339844 C 473.105469 -173.339844 414.289062 -166.667969 360.085938 -154.800781 C 358.933594 -154.429688 357.777344 -154.429688 356.625 -154.0625 C 153.074219 -106.601562 3.148438 18.71875 0.265625 189.316406 L 0.265625 1751.253906 L 1068.765625 1751.253906 L 1068.765625 190.476562 C 1065.882812 17.976562 918.265625 -107.34375 712.40625 -153.691406 Z M 712.40625 -153.691406 " clip-rule="nonzero"/></clipPath><clipPath id="9a9550b83d"><rect x="0" width="1069" y="0" height="1500"/></clipPath><clipPath id="7d8e66f1fa"><rect x="0" width="1069" y="0" height="1500"/></clipPath><clipPath id="49eb9f7576"><path d="M 847.949219 149 L 1259.78125 149 L 1259.78125 1499.996094 L 847.949219 1499.996094 Z M 847.949219 149 " clip-rule="nonzero"/></clipPath><clipPath id="68123a1804"><path d="M 847.949219 824.996094 L 1259.78125 149.996094 L 1259.78125 1499.996094 Z M 847.949219 824.996094 " clip-rule="nonzero"/></clipPath><clipPath id="07431dcea9"><path d="M 0.949219 1 L 412.78125 1 L 412.78125 1350.996094 L 0.949219 1350.996094 Z M 0.949219 1 " clip-rule="nonzero"/></clipPath><clipPath id="ede95c7b7a"><path d="M 0.949219 675.996094 L 412.78125 0.996094 L 412.78125 1350.996094 Z M 0.949219 675.996094 " clip-rule="nonzero"/></clipPath><clipPath id="0a81c19077"><rect x="0" width="413" y="0" height="1351"/></clipPath><mask id="849788b6de"><g filter="url(#0b50508a57)"><rect x="-150" width="1800" fill="#000000" y="-149.999993" height="1799.99992" fill-opacity="0.59"/></g></mask><clipPath id="fea41eaf9f"><path d="M 0.140625 1.039062 L 26.949219 1.039062 L 26.949219 1320 L 0.140625 1320 Z M 0.140625 1.039062 " clip-rule="nonzero"/></clipPath><clipPath id="d60f772ace"><path d="M 0.140625 0.0390625 L 26.949219 0.0390625 L 26.949219 1319 L 0.140625 1319 Z M 0.140625 0.0390625 " clip-rule="nonzero"/></clipPath><clipPath id="03951f27d4"><rect x="0" width="27" y="0" height="1319"/></clipPath><clipPath id="f91208ac61"><path d="M 85.195312 31.667969 L 112 31.667969 L 112 1320 L 85.195312 1320 Z M 85.195312 31.667969 " clip-rule="nonzero"/></clipPath><clipPath id="0c37cb4d87"><path d="M 0.195312 0.667969 L 27 0.667969 L 27 1289 L 0.195312 1289 Z M 0.195312 0.667969 " clip-rule="nonzero"/></clipPath><clipPath id="1da62183bf"><rect x="0" width="27" y="0" height="1289"/></clipPath><clipPath id="18d8542b4b"><path d="M 42.636719 13.039062 L 69.445312 13.039062 L 69.445312 1320 L 42.636719 1320 Z M 42.636719 13.039062 " clip-rule="nonzero"/></clipPath><clipPath id="2eac197558"><path d="M 0.636719 0.0390625 L 27.445312 0.0390625 L 27.445312 1307 L 0.636719 1307 Z M 0.636719 0.0390625 " clip-rule="nonzero"/></clipPath><clipPath id="da32c7409e"><rect x="0" width="28" y="0" height="1307"/></clipPath><clipPath id="ae35b09dda"><path d="M 124.75 24.289062 L 151.558594 24.289062 L 151.558594 1320 L 124.75 1320 Z M 124.75 24.289062 " clip-rule="nonzero"/></clipPath><clipPath id="3679bfc1eb"><path d="M 0.75 0.289062 L 27.558594 0.289062 L 27.558594 1296 L 0.75 1296 Z M 0.75 0.289062 " clip-rule="nonzero"/></clipPath><clipPath id="80c2ef40f8"><rect x="0" width="28" y="0" height="1296"/></clipPath><clipPath id="eef4e06362"><path d="M 209.804688 54.917969 L 236.613281 54.917969 L 236.613281 1320 L 209.804688 1320 Z M 209.804688 54.917969 " clip-rule="nonzero"/></clipPath><clipPath id="e7377b6fad"><path d="M 0.804688 0.917969 L 27.613281 0.917969 L 27.613281 1266 L 0.804688 1266 Z M 0.804688 0.917969 " clip-rule="nonzero"/></clipPath><clipPath id="fcafc8c510"><rect x="0" width="28" y="0" height="1266"/></clipPath><clipPath id="c599cb5a47"><path d="M 167.246094 36.289062 L 194.054688 36.289062 L 194.054688 1320 L 167.246094 1320 Z M 167.246094 36.289062 " clip-rule="nonzero"/></clipPath><clipPath id="2acd5dcc02"><path d="M 0.246094 0.289062 L 27.054688 0.289062 L 27.054688 1284 L 0.246094 1284 Z M 0.246094 0.289062 " clip-rule="nonzero"/></clipPath><clipPath id="f00a3f9ae5"><rect x="0" width="28" y="0" height="1284"/></clipPath><clipPath id="f810a5f068"><path d="M 253.59375 9.226562 L 280.402344 9.226562 L 280.402344 1320 L 253.59375 1320 Z M 253.59375 9.226562 " clip-rule="nonzero"/></clipPath><clipPath id="0d84ac8cf5"><path d="M 0.59375 0.226562 L 27.402344 0.226562 L 27.402344 1311 L 0.59375 1311 Z M 0.59375 0.226562 " clip-rule="nonzero"/></clipPath><clipPath id="64d471e86a"><rect x="0" width="28" y="0" height="1311"/></clipPath><clipPath id="b495fc1741"><path d="M 338.644531 39.855469 L 365.453125 39.855469 L 365.453125 1320 L 338.644531 1320 Z M 338.644531 39.855469 " clip-rule="nonzero"/></clipPath><clipPath id="4a2d23fceb"><path d="M 0.644531 0.855469 L 27.453125 0.855469 L 27.453125 1281 L 0.644531 1281 Z M 0.644531 0.855469 " clip-rule="nonzero"/></clipPath><clipPath id="8f4ee72936"><rect x="0" width="28" y="0" height="1281"/></clipPath><clipPath id="7298ed30ef"><path d="M 296.085938 21.226562 L 322.894531 21.226562 L 322.894531 1320 L 296.085938 1320 Z M 296.085938 21.226562 " clip-rule="nonzero"/></clipPath><clipPath id="618b52a502"><path d="M 0.0859375 0.226562 L 26.894531 0.226562 L 26.894531 1299 L 0.0859375 1299 Z M 0.0859375 0.226562 " clip-rule="nonzero"/></clipPath><clipPath id="f0f6093355"><rect x="0" width="27" y="0" height="1299"/></clipPath><clipPath id="a3288c56f9"><rect x="0" width="366" y="0" height="1320"/></clipPath><clipPath id="fb31ed729f"><path d="M 193.523438 0 L 578.070312 0 L 578.070312 340.773438 L 193.523438 340.773438 Z M 193.523438 0 " clip-rule="nonzero"/></clipPath><clipPath id="0291833d7f"><path d="M 385.796875 -43.773438 C 279.609375 -43.773438 193.523438 42.3125 193.523438 148.5 C 193.523438 254.6875 279.609375 340.773438 385.796875 340.773438 C 491.988281 340.773438 578.070312 254.6875 578.070312 148.5 C 578.070312 42.3125 491.988281 -43.773438 385.796875 -43.773438 Z M 385.796875 -43.773438 " clip-rule="nonzero"/></clipPath><clipPath id="52e6e2cdb1"><path d="M 0.523438 0 L 385.070312 0 L 385.070312 340.773438 L 0.523438 340.773438 Z M 0.523438 0 " clip-rule="nonzero"/></clipPath><clipPath id="534b9471ee"><path d="M 192.796875 -43.773438 C 86.609375 -43.773438 0.523438 42.3125 0.523438 148.5 C 0.523438 254.6875 86.609375 340.773438 192.796875 340.773438 C 298.988281 340.773438 385.070312 254.6875 385.070312 148.5 C 385.070312 42.3125 298.988281 -43.773438 192.796875 -43.773438 Z M 192.796875 -43.773438 " clip-rule="nonzero"/></clipPath><clipPath id="4d81c39707"><rect x="0" width="386" y="0" height="341"/></clipPath></defs><rect x="-150" width="1800" fill="#ffffff" y="-149.999993" height="1799.99992" fill-opacity="1"/><rect x="-150" width="1800" fill="#ffffff" y="-149.999993" height="1799.99992" fill-opacity="1"/><g mask="url(#e174028295)"><g transform="matrix(1, 0, 0, 1, 0, 0.000000000000112861)"><g clip-path="url(#a89a379472)"><g clip-path="url(#448c6532dd)"><g clip-path="url(#569f8de539)"><g transform="matrix(1, 0, 0, 1, 0, 0.000000000000112861)"><g clip-path="url(#cf337e50d5)"><g clip-path="url(#5046336ab3)"><g clip-path="url(#5705d9f51c)"><path fill="#25632d" d="M 575.808594 1604.394531 L -515.78125 1604.394531 L -515.78125 -173.703125 L 575.808594 -173.703125 Z M 575.808594 1604.394531 " fill-opacity="1" fill-rule="nonzero"/></g></g></g></g></g></g></g></g></g><g clip-path="url(#6a83079b1c)"><g clip-path="url(#d6feb0d071)"><g transform="matrix(1, 0, 0, 1, 575, 150)"><g clip-path="url(#eb132bdd64)"><g clip-path="url(#e0f48ae71b)"><g clip-path="url(#9c16613eec)"><path fill="#001b3d" d="M 0.820312 1350 L 0.820312 0.789062 L 684.777344 0.789062 L 684.777344 1350 Z M 0.820312 1350 " fill-opacity="1" fill-rule="nonzero"/></g></g></g></g></g></g><g mask="url(#f68d1b566c)"><g transform="matrix(1, 0, 0, 1, 191, 0.000000000000112861)"><g clip-path="url(#7d8e66f1fa)"><g clip-path="url(#84b5f1467c)"><g clip-path="url(#e7749b576d)"><g transform="matrix(1, 0, 0, 1, 0, 0.000000000000112861)"><g clip-path="url(#9a9550b83d)"><g clip-path="url(#f725f0d4e5)"><g clip-path="url(#232fd38334)"><path fill="#25632d" d="M 1068.765625 1751.253906 L 0.265625 1751.253906 L 0.265625 -172.882812 L 1068.765625 -172.882812 Z M 1068.765625 1751.253906 " fill-opacity="1" fill-rule="nonzero"/></g></g></g></g></g></g></g></g></g><g clip-path="url(#49eb9f7576)"><g clip-path="url(#68123a1804)"><g transform="matrix(1, 0, 0, 1, 847, 149)"><g clip-path="url(#0a81c19077)"><g clip-path="url(#07431dcea9)"><g clip-path="url(#ede95c7b7a)"><path fill="#ff9045" d="M 0.949219 1350.996094 L 0.949219 1.289062 L 412.78125 1.289062 L 412.78125 1350.996094 Z M 0.949219 1350.996094 " fill-opacity="1" fill-rule="nonzero"/></g></g></g></g></g></g><g mask="url(#849788b6de)"><g transform="matrix(1, 0, 0, 1, 203, 180)"><g clip-path="url(#a3288c56f9)"><g clip-path="url(#fea41eaf9f)"><g transform="matrix(1, 0, 0, 1, 0, 1)"><g clip-path="url(#03951f27d4)"><g clip-path="url(#d60f772ace)"><path fill="#001b3d" d="M 0.140625 0.0390625 L 26.949219 0.0390625 L 26.949219 1318.972656 L 0.140625 1318.972656 Z M 0.140625 0.0390625 " fill-opacity="1" fill-rule="nonzero"/></g></g></g></g><g clip-path="url(#f91208ac61)"><g transform="matrix(1, 0, 0, 1, 85, 31)"><g clip-path="url(#1da62183bf)"><g clip-path="url(#0c37cb4d87)"><path fill="#001b3d" d="M 0.195312 0.667969 L 27 0.667969 L 27 1319.601562 L 0.195312 1319.601562 Z M 0.195312 0.667969 " fill-opacity="1" fill-rule="nonzero"/></g></g></g></g><g clip-path="url(#18d8542b4b)"><g transform="matrix(1, 0, 0, 1, 42, 13)"><g clip-path="url(#da32c7409e)"><g clip-path="url(#2eac197558)"><path fill="#001b3d" d="M 0.636719 0.0390625 L 27.445312 0.0390625 L 27.445312 1318.972656 L 0.636719 1318.972656 Z M 0.636719 0.0390625 " fill-opacity="1" fill-rule="nonzero"/></g></g></g></g><g clip-path="url(#ae35b09dda)"><g transform="matrix(1, 0, 0, 1, 124, 24)"><g clip-path="url(#80c2ef40f8)"><g clip-path="url(#3679bfc1eb)"><path fill="#001b3d" d="M 0.75 0.289062 L 27.558594 0.289062 L 27.558594 1319.222656 L 0.75 1319.222656 Z M 0.75 0.289062 " fill-opacity="1" fill-rule="nonzero"/></g></g></g></g><g clip-path="url(#eef4e06362)"><g transform="matrix(1, 0, 0, 1, 209, 54)"><g clip-path="url(#fcafc8c510)"><g clip-path="url(#e7377b6fad)"><path fill="#001b3d" d="M 0.804688 0.917969 L 27.613281 0.917969 L 27.613281 1319.851562 L 0.804688 1319.851562 Z M 0.804688 0.917969 " fill-opacity="1" fill-rule="nonzero"/></g></g></g></g><g clip-path="url(#c599cb5a47)"><g transform="matrix(1, 0, 0, 1, 167, 36)"><g clip-path="url(#f00a3f9ae5)"><g clip-path="url(#2acd5dcc02)"><path fill="#001b3d" d="M 0.246094 0.289062 L 27.054688 0.289062 L 27.054688 1319.222656 L 0.246094 1319.222656 Z M 0.246094 0.289062 " fill-opacity="1" fill-rule="nonzero"/></g></g></g></g><g clip-path="url(#f810a5f068)"><g transform="matrix(1, 0, 0, 1, 253, 9)"><g clip-path="url(#64d471e86a)"><g clip-path="url(#0d84ac8cf5)"><path fill="#001b3d" d="M 0.59375 0.226562 L 27.402344 0.226562 L 27.402344 1319.160156 L 0.59375 1319.160156 Z M 0.59375 0.226562 " fill-opacity="1" fill-rule="nonzero"/></g></g></g></g><g clip-path="url(#b495fc1741)"><g transform="matrix(1, 0, 0, 1, 338, 39)"><g clip-path="url(#8f4ee72936)"><g clip-path="url(#4a2d23fceb)"><path fill="#001b3d" d="M 0.644531 0.855469 L 27.453125 0.855469 L 27.453125 1319.789062 L 0.644531 1319.789062 Z M 0.644531 0.855469 " fill-opacity="1" fill-rule="nonzero"/></g></g></g></g><g clip-path="url(#7298ed30ef)"><g transform="matrix(1, 0, 0, 1, 296, 21)"><g clip-path="url(#f0f6093355)"><g clip-path="url(#618b52a502)"><path fill="#001b3d" d="M 0.0859375 0.226562 L 26.894531 0.226562 L 26.894531 1319.160156 L 0.0859375 1319.160156 Z M 0.0859375 0.226562 " fill-opacity="1" fill-rule="nonzero"/></g></g></g></g></g></g></g><g clip-path="url(#fb31ed729f)"><g clip-path="url(#0291833d7f)"><g transform="matrix(1, 0, 0, 1, 193, 0.000000000000112861)"><g clip-path="url(#4d81c39707)"><g clip-path="url(#52e6e2cdb1)"><g clip-path="url(#534b9471ee)"><path fill="#ff9045" d="M 0.523438 -43.773438 L 385.070312 -43.773438 L 385.070312 340.773438 L 0.523438 340.773438 Z M 0.523438 -43.773438 " fill-opacity="1" fill-rule="nonzero"/></g></g></g></g></g></g></svg>