<svg xmlns="http://www.w3.org/2000/svg" xmlns:xlink="http://www.w3.org/1999/xlink" width="2000" zoomAndPan="magnify" viewBox="0 0 1500 1499.999933" height="2000" preserveAspectRatio="xMidYMid meet" version="1.0"><defs><filter x="0%" y="0%" width="100%" height="100%" id="32bb446b8d"><feColorMatrix values="0 0 0 0 1 0 0 0 0 1 0 0 0 0 1 0 0 0 1 0" color-interpolation-filters="sRGB"/></filter><mask id="762a4982a2"><g filter="url(#32bb446b8d)"><rect x="-150" width="1800" fill="#000000" y="-149.999993" height="1799.99992" fill-opacity="0.78"/></g></mask><clipPath id="c992c10503"><path d="M 0 0 L 739.308594 0 L 739.308594 1500 L 0 1500 Z M 0 0 " clip-rule="nonzero"/></clipPath><clipPath id="489eab4329"><path d="M 375.25 -153.695312 C 319.285156 -165.558594 255.664062 -173.34375 193.21875 -173.34375 C 130.777344 -173.34375 70.6875 -166.667969 15.316406 -154.804688 C 14.136719 -154.433594 12.957031 -154.433594 11.78125 -154.0625 C -196.171875 -106.605469 -349.335938 18.714844 -352.28125 186.050781 L -352.28125 1604.394531 L 739.308594 1604.394531 L 739.308594 187.105469 C 736.363281 17.972656 585.554688 -107.347656 375.25 -153.695312 Z M 375.25 -153.695312 " clip-rule="nonzero"/></clipPath><clipPath id="b487060311"><path d="M 0 0 L 739.308594 0 L 739.308594 1500 L 0 1500 Z M 0 0 " clip-rule="nonzero"/></clipPath><clipPath id="ef0fcf1992"><path d="M 375.25 -153.695312 C 319.285156 -165.558594 255.664062 -173.34375 193.21875 -173.34375 C 130.777344 -173.34375 70.6875 -166.667969 15.316406 -154.804688 C 14.136719 -154.433594 12.957031 -154.433594 11.78125 -154.0625 C -196.171875 -106.605469 -349.335938 18.714844 -352.28125 186.050781 L -352.28125 1604.394531 L 739.308594 1604.394531 L 739.308594 187.105469 C 736.363281 17.972656 585.554688 -107.347656 375.25 -153.695312 Z M 375.25 -153.695312 " clip-rule="nonzero"/></clipPath><clipPath id="541828255e"><rect x="0" width="740" y="0" height="1500"/></clipPath><clipPath id="d1dcb3366f"><rect x="0" width="740" y="0" height="1500"/></clipPath><clipPath id="7906b2938b"><path d="M 740.050781 0 L 1500 0 L 1500 1500 L 740.050781 1500 Z M 740.050781 0 " clip-rule="nonzero"/></clipPath><clipPath id="7057e18753"><path d="M 1500 0 C 1086.066406 0 740.050781 341.484375 740.050781 750 C 740.050781 1158.511719 1086.066406 1500 1500 1500 Z M 1500 0 " clip-rule="nonzero"/></clipPath><clipPath id="766fb70f77"><path d="M 0.0507812 0 L 760 0 L 760 1500 L 0.0507812 1500 Z M 0.0507812 0 " clip-rule="nonzero"/></clipPath><clipPath id="1a806446b5"><path d="M 760 0 C 346.066406 0 0.0507812 341.484375 0.0507812 750 C 0.0507812 1158.511719 346.066406 1500 760 1500 Z M 760 0 " clip-rule="nonzero"/></clipPath><clipPath id="3d55a868c2"><rect x="0" width="760" y="0" height="1500"/></clipPath><mask id="954ca52e54"><g filter="url(#32bb446b8d)"><rect x="-150" width="1800" fill="#000000" y="-149.999993" height="1799.99992" fill-opacity="0.5"/></g></mask><clipPath id="d3bf06e6fa"><path d="M 0.789062 0 L 1069.289062 0 L 1069.289062 1500 L 0.789062 1500 Z M 0.789062 0 " clip-rule="nonzero"/></clipPath><clipPath id="4e003ea2ef"><path d="M 712.929688 -153.691406 C 658.152344 -165.554688 595.875 -173.339844 534.753906 -173.339844 C 473.628906 -173.339844 414.8125 -166.667969 360.609375 -154.800781 C 359.453125 -154.429688 358.300781 -154.429688 357.148438 -154.0625 C 153.597656 -106.601562 3.671875 18.71875 0.789062 189.316406 L 0.789062 1751.253906 L 1069.289062 1751.253906 L 1069.289062 190.476562 C 1066.40625 17.976562 918.789062 -107.34375 712.929688 -153.691406 Z M 712.929688 -153.691406 " clip-rule="nonzero"/></clipPath><clipPath id="7404c4307e"><path d="M 0.789062 0 L 1069.289062 0 L 1069.289062 1500 L 0.789062 1500 Z M 0.789062 0 " clip-rule="nonzero"/></clipPath><clipPath id="12ffb63975"><path d="M 712.929688 -153.691406 C 658.152344 -165.554688 595.875 -173.339844 534.753906 -173.339844 C 473.628906 -173.339844 414.8125 -166.667969 360.609375 -154.800781 C 359.453125 -154.429688 358.300781 -154.429688 357.148438 -154.0625 C 153.597656 -106.601562 3.671875 18.71875 0.789062 189.316406 L 0.789062 1751.253906 L 1069.289062 1751.253906 L 1069.289062 190.476562 C 1066.40625 17.976562 918.789062 -107.34375 712.929688 -153.691406 Z M 712.929688 -153.691406 " clip-rule="nonzero"/></clipPath><clipPath id="dd4f3761ac"><rect x="0" width="1070" y="0" height="1500"/></clipPath><clipPath id="e1b98548bd"><rect x="0" width="1070" y="0" height="1500"/></clipPath><clipPath id="8dd36911f0"><path d="M 1042.414062 0 L 1500 0 L 1500 1499.996094 L 1042.414062 1499.996094 Z M 1042.414062 0 " clip-rule="nonzero"/></clipPath><clipPath id="8e3280c9d3"><path d="M 1042.414062 749.996094 L 1500.003906 -0.00390625 L 1500.003906 1499.996094 Z M 1042.414062 749.996094 " clip-rule="nonzero"/></clipPath><clipPath id="ecb08b9a2e"><path d="M 0.414062 0 L 458 0 L 458 1499.996094 L 0.414062 1499.996094 Z M 0.414062 0 " clip-rule="nonzero"/></clipPath><clipPath id="efa68bca5f"><path d="M 0.414062 749.996094 L 458.003906 -0.00390625 L 458.003906 1499.996094 Z M 0.414062 749.996094 " clip-rule="nonzero"/></clipPath><clipPath id="2bb9d80e6f"><rect x="0" width="458" y="0" height="1500"/></clipPath><mask id="60223f4d08"><g filter="url(#32bb446b8d)"><rect x="-150" width="1800" fill="#000000" y="-149.999993" height="1799.99992" fill-opacity="0.59"/></g></mask><clipPath id="a87c617a30"><path d="M 0.140625 1.039062 L 26.949219 1.039062 L 26.949219 1320 L 0.140625 1320 Z M 0.140625 1.039062 " clip-rule="nonzero"/></clipPath><clipPath id="2826d7d64f"><path d="M 0.140625 0.0390625 L 26.949219 0.0390625 L 26.949219 1319 L 0.140625 1319 Z M 0.140625 0.0390625 " clip-rule="nonzero"/></clipPath><clipPath id="28844a8f98"><rect x="0" width="27" y="0" height="1319"/></clipPath><clipPath id="4b83de6cdd"><path d="M 85.195312 31.667969 L 112 31.667969 L 112 1320 L 85.195312 1320 Z M 85.195312 31.667969 " clip-rule="nonzero"/></clipPath><clipPath id="8d7792186c"><path d="M 0.195312 0.667969 L 27 0.667969 L 27 1289 L 0.195312 1289 Z M 0.195312 0.667969 " clip-rule="nonzero"/></clipPath><clipPath id="22db28b961"><rect x="0" width="27" y="0" height="1289"/></clipPath><clipPath id="7a8e66bdc0"><path d="M 42.636719 13.039062 L 69.445312 13.039062 L 69.445312 1320 L 42.636719 1320 Z M 42.636719 13.039062 " clip-rule="nonzero"/></clipPath><clipPath id="2ca7eb3905"><path d="M 0.636719 0.0390625 L 27.445312 0.0390625 L 27.445312 1307 L 0.636719 1307 Z M 0.636719 0.0390625 " clip-rule="nonzero"/></clipPath><clipPath id="9812f39f63"><rect x="0" width="28" y="0" height="1307"/></clipPath><clipPath id="869d9812c4"><path d="M 124.75 24.289062 L 151.558594 24.289062 L 151.558594 1320 L 124.75 1320 Z M 124.75 24.289062 " clip-rule="nonzero"/></clipPath><clipPath id="4a6a790dee"><path d="M 0.75 0.289062 L 27.558594 0.289062 L 27.558594 1296 L 0.75 1296 Z M 0.75 0.289062 " clip-rule="nonzero"/></clipPath><clipPath id="c38368fd86"><rect x="0" width="28" y="0" height="1296"/></clipPath><clipPath id="0160c70a46"><path d="M 209.804688 54.917969 L 236.613281 54.917969 L 236.613281 1320 L 209.804688 1320 Z M 209.804688 54.917969 " clip-rule="nonzero"/></clipPath><clipPath id="e8a938b400"><path d="M 0.804688 0.917969 L 27.613281 0.917969 L 27.613281 1266 L 0.804688 1266 Z M 0.804688 0.917969 " clip-rule="nonzero"/></clipPath><clipPath id="7ebadb1271"><rect x="0" width="28" y="0" height="1266"/></clipPath><clipPath id="6326ebb42d"><path d="M 167.246094 36.289062 L 194.054688 36.289062 L 194.054688 1320 L 167.246094 1320 Z M 167.246094 36.289062 " clip-rule="nonzero"/></clipPath><clipPath id="4a04e230a8"><path d="M 0.246094 0.289062 L 27.054688 0.289062 L 27.054688 1284 L 0.246094 1284 Z M 0.246094 0.289062 " clip-rule="nonzero"/></clipPath><clipPath id="5396c03737"><rect x="0" width="28" y="0" height="1284"/></clipPath><clipPath id="0d01be653a"><path d="M 253.59375 9.226562 L 280.402344 9.226562 L 280.402344 1320 L 253.59375 1320 Z M 253.59375 9.226562 " clip-rule="nonzero"/></clipPath><clipPath id="1dc9c9822b"><path d="M 0.59375 0.226562 L 27.402344 0.226562 L 27.402344 1311 L 0.59375 1311 Z M 0.59375 0.226562 " clip-rule="nonzero"/></clipPath><clipPath id="4ac09f06d4"><rect x="0" width="28" y="0" height="1311"/></clipPath><clipPath id="fbc561f3b6"><path d="M 338.644531 39.855469 L 365.453125 39.855469 L 365.453125 1320 L 338.644531 1320 Z M 338.644531 39.855469 " clip-rule="nonzero"/></clipPath><clipPath id="59f3fa50cc"><path d="M 0.644531 0.855469 L 27.453125 0.855469 L 27.453125 1281 L 0.644531 1281 Z M 0.644531 0.855469 " clip-rule="nonzero"/></clipPath><clipPath id="67b474115e"><rect x="0" width="28" y="0" height="1281"/></clipPath><clipPath id="ce82fd8372"><path d="M 296.085938 21.226562 L 322.894531 21.226562 L 322.894531 1320 L 296.085938 1320 Z M 296.085938 21.226562 " clip-rule="nonzero"/></clipPath><clipPath id="332f9e8c71"><path d="M 0.0859375 0.226562 L 26.894531 0.226562 L 26.894531 1299 L 0.0859375 1299 Z M 0.0859375 0.226562 " clip-rule="nonzero"/></clipPath><clipPath id="dc409ae231"><rect x="0" width="27" y="0" height="1299"/></clipPath><clipPath id="b21f7ebeec"><rect x="0" width="366" y="0" height="1320"/></clipPath><mask id="f476412dc6"><g filter="url(#32bb446b8d)"><rect x="-150" width="1800" fill="#000000" y="-149.999993" height="1799.99992" fill-opacity="0.59"/></g></mask><clipPath id="2223ea5d42"><path d="M 1.007812 1.039062 L 27.816406 1.039062 L 27.816406 1320 L 1.007812 1320 Z M 1.007812 1.039062 " clip-rule="nonzero"/></clipPath><clipPath id="79df993905"><path d="M 0.0078125 0.0390625 L 26.816406 0.0390625 L 26.816406 1319 L 0.0078125 1319 Z M 0.0078125 0.0390625 " clip-rule="nonzero"/></clipPath><clipPath id="0c3e4fde97"><rect x="0" width="27" y="0" height="1319"/></clipPath><clipPath id="f227e3b31f"><path d="M 86.058594 31.667969 L 112.867188 31.667969 L 112.867188 1320 L 86.058594 1320 Z M 86.058594 31.667969 " clip-rule="nonzero"/></clipPath><clipPath id="8bdb02e835"><path d="M 0.0585938 0.667969 L 26.867188 0.667969 L 26.867188 1289 L 0.0585938 1289 Z M 0.0585938 0.667969 " clip-rule="nonzero"/></clipPath><clipPath id="b933c44e86"><rect x="0" width="27" y="0" height="1289"/></clipPath><clipPath id="24805de232"><path d="M 43.5 13.039062 L 70.308594 13.039062 L 70.308594 1320 L 43.5 1320 Z M 43.5 13.039062 " clip-rule="nonzero"/></clipPath><clipPath id="222208100b"><path d="M 0.5 0.0390625 L 27.308594 0.0390625 L 27.308594 1307 L 0.5 1307 Z M 0.5 0.0390625 " clip-rule="nonzero"/></clipPath><clipPath id="3fa50043aa"><rect x="0" width="28" y="0" height="1307"/></clipPath><clipPath id="4748ce1939"><path d="M 125.617188 24.289062 L 152.425781 24.289062 L 152.425781 1320 L 125.617188 1320 Z M 125.617188 24.289062 " clip-rule="nonzero"/></clipPath><clipPath id="3c0c7c2336"><path d="M 0.617188 0.289062 L 27.425781 0.289062 L 27.425781 1296 L 0.617188 1296 Z M 0.617188 0.289062 " clip-rule="nonzero"/></clipPath><clipPath id="8ef272c5d8"><rect x="0" width="28" y="0" height="1296"/></clipPath><clipPath id="cc1d889bef"><path d="M 210.667969 54.917969 L 237.476562 54.917969 L 237.476562 1320 L 210.667969 1320 Z M 210.667969 54.917969 " clip-rule="nonzero"/></clipPath><clipPath id="927f9446b6"><path d="M 0.667969 0.917969 L 27.476562 0.917969 L 27.476562 1266 L 0.667969 1266 Z M 0.667969 0.917969 " clip-rule="nonzero"/></clipPath><clipPath id="443a6b45db"><rect x="0" width="28" y="0" height="1266"/></clipPath><clipPath id="c21e4cdbdb"><path d="M 168.113281 36.289062 L 194.917969 36.289062 L 194.917969 1320 L 168.113281 1320 Z M 168.113281 36.289062 " clip-rule="nonzero"/></clipPath><clipPath id="85455bd59e"><path d="M 0.113281 0.289062 L 26.917969 0.289062 L 26.917969 1284 L 0.113281 1284 Z M 0.113281 0.289062 " clip-rule="nonzero"/></clipPath><clipPath id="9b36ee01f6"><rect x="0" width="27" y="0" height="1284"/></clipPath><clipPath id="55209410ce"><path d="M 254.460938 9.226562 L 281.269531 9.226562 L 281.269531 1320 L 254.460938 1320 Z M 254.460938 9.226562 " clip-rule="nonzero"/></clipPath><clipPath id="4bdbe5c486"><path d="M 0.460938 0.226562 L 27.269531 0.226562 L 27.269531 1311 L 0.460938 1311 Z M 0.460938 0.226562 " clip-rule="nonzero"/></clipPath><clipPath id="5154edf2c4"><rect x="0" width="28" y="0" height="1311"/></clipPath><clipPath id="ebc0881dca"><path d="M 339.511719 39.855469 L 366.320312 39.855469 L 366.320312 1320 L 339.511719 1320 Z M 339.511719 39.855469 " clip-rule="nonzero"/></clipPath><clipPath id="be7ffdbfbe"><path d="M 0.511719 0.855469 L 27.320312 0.855469 L 27.320312 1281 L 0.511719 1281 Z M 0.511719 0.855469 " clip-rule="nonzero"/></clipPath><clipPath id="9aeae7fef1"><rect x="0" width="28" y="0" height="1281"/></clipPath><clipPath id="f1f488d0a5"><path d="M 296.953125 21.226562 L 323.761719 21.226562 L 323.761719 1320 L 296.953125 1320 Z M 296.953125 21.226562 " clip-rule="nonzero"/></clipPath><clipPath id="5ca5c04e47"><path d="M 0.953125 0.226562 L 27.761719 0.226562 L 27.761719 1299 L 0.953125 1299 Z M 0.953125 0.226562 " clip-rule="nonzero"/></clipPath><clipPath id="2928bb1668"><rect x="0" width="28" y="0" height="1299"/></clipPath><clipPath id="859ff36bbd"><rect x="0" width="367" y="0" height="1320"/></clipPath><clipPath id="1d08a73f0f"><path d="M 203.140625 0 L 740.050781 0 L 740.050781 432.992188 L 203.140625 432.992188 Z M 203.140625 0 " clip-rule="nonzero"/></clipPath><clipPath id="1a07f28e76"><path d="M 471.59375 -103.917969 C 323.332031 -103.917969 203.140625 16.273438 203.140625 164.539062 C 203.140625 312.800781 323.332031 432.992188 471.59375 432.992188 C 619.859375 432.992188 740.050781 312.800781 740.050781 164.539062 C 740.050781 16.273438 619.859375 -103.917969 471.59375 -103.917969 Z M 471.59375 -103.917969 " clip-rule="nonzero"/></clipPath><clipPath id="89dd5b271d"><path d="M 0.140625 0 L 537.050781 0 L 537.050781 432.992188 L 0.140625 432.992188 Z M 0.140625 0 " clip-rule="nonzero"/></clipPath><clipPath id="132188a019"><path d="M 268.59375 -103.917969 C 120.332031 -103.917969 0.140625 16.273438 0.140625 164.539062 C 0.140625 312.800781 120.332031 432.992188 268.59375 432.992188 C 416.859375 432.992188 537.050781 312.800781 537.050781 164.539062 C 537.050781 16.273438 416.859375 -103.917969 268.59375 -103.917969 Z M 268.59375 -103.917969 " clip-rule="nonzero"/></clipPath><clipPath id="85fb12b79c"><rect x="0" width="538" y="0" height="433"/></clipPath><mask id="a9b92544ad"><g filter="url(#32bb446b8d)"><rect x="-150" width="1800" fill="#000000" y="-149.999993" height="1799.99992" fill-opacity="0.64"/></g></mask><clipPath id="8c51e5614e"><path d="M 0.796875 0 L 537.707031 0 L 537.707031 391.894531 L 0.796875 391.894531 Z M 0.796875 0 " clip-rule="nonzero"/></clipPath><clipPath id="aa36689654"><path d="M 269.253906 -145.011719 C 120.988281 -145.011719 0.796875 -24.820312 0.796875 123.441406 C 0.796875 271.703125 120.988281 391.894531 269.253906 391.894531 C 417.515625 391.894531 537.707031 271.703125 537.707031 123.441406 C 537.707031 -24.820312 417.515625 -145.011719 269.253906 -145.011719 Z M 269.253906 -145.011719 " clip-rule="nonzero"/></clipPath><clipPath id="502de8eb66"><path d="M 0.796875 0 L 537.707031 0 L 537.707031 391.894531 L 0.796875 391.894531 Z M 0.796875 0 " clip-rule="nonzero"/></clipPath><clipPath id="4b0f883c70"><path d="M 269.253906 -145.011719 C 120.988281 -145.011719 0.796875 -24.820312 0.796875 123.441406 C 0.796875 271.703125 120.988281 391.894531 269.253906 391.894531 C 417.515625 391.894531 537.707031 271.703125 537.707031 123.441406 C 537.707031 -24.820312 417.515625 -145.011719 269.253906 -145.011719 Z M 269.253906 -145.011719 " clip-rule="nonzero"/></clipPath><clipPath id="e8ba4173bc"><rect x="0" width="538" y="0" height="392"/></clipPath><clipPath id="0f67d15c06"><rect x="0" width="538" y="0" height="392"/></clipPath><clipPath id="5ffe08ea4a"><path d="M 205.796875 0 L 743 0 L 743 336.417969 L 205.796875 336.417969 Z M 205.796875 0 " clip-rule="nonzero"/></clipPath><clipPath id="b803523f92"><path d="M 474.253906 -145.011719 C 325.988281 -145.011719 205.796875 -37.242188 205.796875 95.703125 C 205.796875 228.644531 325.988281 336.417969 474.253906 336.417969 C 622.515625 336.417969 742.707031 228.644531 742.707031 95.703125 C 742.707031 -37.242188 622.515625 -145.011719 474.253906 -145.011719 Z M 474.253906 -145.011719 " clip-rule="nonzero"/></clipPath><clipPath id="63e124c5e2"><path d="M 0.796875 0 L 537.800781 0 L 537.800781 336.417969 L 0.796875 336.417969 Z M 0.796875 0 " clip-rule="nonzero"/></clipPath><clipPath id="3f25f1ce6b"><path d="M 269.253906 -145.011719 C 120.988281 -145.011719 0.796875 -37.242188 0.796875 95.703125 C 0.796875 228.644531 120.988281 336.417969 269.253906 336.417969 C 417.515625 336.417969 537.707031 228.644531 537.707031 95.703125 C 537.707031 -37.242188 417.515625 -145.011719 269.253906 -145.011719 Z M 269.253906 -145.011719 " clip-rule="nonzero"/></clipPath><clipPath id="7508754f9b"><rect x="0" width="538" y="0" height="337"/></clipPath></defs><g mask="url(#762a4982a2)"><g transform="matrix(1, 0, 0, 1, 0, 0.000000000000112861)"><g clip-path="url(#d1dcb3366f)"><g clip-path="url(#c992c10503)"><g clip-path="url(#489eab4329)"><g transform="matrix(1, 0, 0, 1, 0, 0.000000000000112861)"><g clip-path="url(#541828255e)"><g clip-path="url(#b487060311)"><g clip-path="url(#ef0fcf1992)"><path fill="#25632d" d="M 739.308594 1604.394531 L -352.28125 1604.394531 L -352.28125 -173.703125 L 739.308594 -173.703125 Z M 739.308594 1604.394531 " fill-opacity="1" fill-rule="nonzero"/></g></g></g></g></g></g></g></g></g><g clip-path="url(#7906b2938b)"><g clip-path="url(#7057e18753)"><g transform="matrix(1, 0, 0, 1, 740, 0.000000000000112861)"><g clip-path="url(#3d55a868c2)"><g clip-path="url(#766fb70f77)"><g clip-path="url(#1a806446b5)"><path fill="#001b3d" d="M 0.0507812 1500 L 0.0507812 0.875 L 760 0.875 L 760 1500 Z M 0.0507812 1500 " fill-opacity="1" fill-rule="nonzero"/></g></g></g></g></g></g><g mask="url(#954ca52e54)"><g transform="matrix(1, 0, 0, 1, 205, 0.000000000000112861)"><g clip-path="url(#e1b98548bd)"><g clip-path="url(#d3bf06e6fa)"><g clip-path="url(#4e003ea2ef)"><g transform="matrix(1, 0, 0, 1, 0, 0.000000000000112861)"><g clip-path="url(#dd4f3761ac)"><g clip-path="url(#7404c4307e)"><g clip-path="url(#12ffb63975)"><path fill="#25632d" d="M 1069.289062 1751.253906 L 0.789062 1751.253906 L 0.789062 -172.882812 L 1069.289062 -172.882812 Z M 1069.289062 1751.253906 " fill-opacity="1" fill-rule="nonzero"/></g></g></g></g></g></g></g></g></g><g clip-path="url(#8dd36911f0)"><g clip-path="url(#8e3280c9d3)"><g transform="matrix(1, 0, 0, 1, 1042, 0.000000000000112861)"><g clip-path="url(#2bb9d80e6f)"><g clip-path="url(#ecb08b9a2e)"><g clip-path="url(#efa68bca5f)"><path fill="#ff9045" d="M 0.414062 1499.996094 L 0.414062 0.324219 L 458.003906 0.324219 L 458.003906 1499.996094 Z M 0.414062 1499.996094 " fill-opacity="1" fill-rule="nonzero"/></g></g></g></g></g></g><g mask="url(#60223f4d08)"><g transform="matrix(1, 0, 0, 1, 203, 180)"><g clip-path="url(#b21f7ebeec)"><g clip-path="url(#a87c617a30)"><g transform="matrix(1, 0, 0, 1, 0, 1)"><g clip-path="url(#28844a8f98)"><g clip-path="url(#2826d7d64f)"><path fill="#001b3d" d="M 0.140625 0.0390625 L 26.949219 0.0390625 L 26.949219 1318.972656 L 0.140625 1318.972656 Z M 0.140625 0.0390625 " fill-opacity="1" fill-rule="nonzero"/></g></g></g></g><g clip-path="url(#4b83de6cdd)"><g transform="matrix(1, 0, 0, 1, 85, 31)"><g clip-path="url(#22db28b961)"><g clip-path="url(#8d7792186c)"><path fill="#001b3d" d="M 0.195312 0.667969 L 27 0.667969 L 27 1319.601562 L 0.195312 1319.601562 Z M 0.195312 0.667969 " fill-opacity="1" fill-rule="nonzero"/></g></g></g></g><g clip-path="url(#7a8e66bdc0)"><g transform="matrix(1, 0, 0, 1, 42, 13)"><g clip-path="url(#9812f39f63)"><g clip-path="url(#2ca7eb3905)"><path fill="#001b3d" d="M 0.636719 0.0390625 L 27.445312 0.0390625 L 27.445312 1318.972656 L 0.636719 1318.972656 Z M 0.636719 0.0390625 " fill-opacity="1" fill-rule="nonzero"/></g></g></g></g><g clip-path="url(#869d9812c4)"><g transform="matrix(1, 0, 0, 1, 124, 24)"><g clip-path="url(#c38368fd86)"><g clip-path="url(#4a6a790dee)"><path fill="#001b3d" d="M 0.75 0.289062 L 27.558594 0.289062 L 27.558594 1319.222656 L 0.75 1319.222656 Z M 0.75 0.289062 " fill-opacity="1" fill-rule="nonzero"/></g></g></g></g><g clip-path="url(#0160c70a46)"><g transform="matrix(1, 0, 0, 1, 209, 54)"><g clip-path="url(#7ebadb1271)"><g clip-path="url(#e8a938b400)"><path fill="#001b3d" d="M 0.804688 0.917969 L 27.613281 0.917969 L 27.613281 1319.851562 L 0.804688 1319.851562 Z M 0.804688 0.917969 " fill-opacity="1" fill-rule="nonzero"/></g></g></g></g><g clip-path="url(#6326ebb42d)"><g transform="matrix(1, 0, 0, 1, 167, 36)"><g clip-path="url(#5396c03737)"><g clip-path="url(#4a04e230a8)"><path fill="#001b3d" d="M 0.246094 0.289062 L 27.054688 0.289062 L 27.054688 1319.222656 L 0.246094 1319.222656 Z M 0.246094 0.289062 " fill-opacity="1" fill-rule="nonzero"/></g></g></g></g><g clip-path="url(#0d01be653a)"><g transform="matrix(1, 0, 0, 1, 253, 9)"><g clip-path="url(#4ac09f06d4)"><g clip-path="url(#1dc9c9822b)"><path fill="#001b3d" d="M 0.59375 0.226562 L 27.402344 0.226562 L 27.402344 1319.160156 L 0.59375 1319.160156 Z M 0.59375 0.226562 " fill-opacity="1" fill-rule="nonzero"/></g></g></g></g><g clip-path="url(#fbc561f3b6)"><g transform="matrix(1, 0, 0, 1, 338, 39)"><g clip-path="url(#67b474115e)"><g clip-path="url(#59f3fa50cc)"><path fill="#001b3d" d="M 0.644531 0.855469 L 27.453125 0.855469 L 27.453125 1319.789062 L 0.644531 1319.789062 Z M 0.644531 0.855469 " fill-opacity="1" fill-rule="nonzero"/></g></g></g></g><g clip-path="url(#ce82fd8372)"><g transform="matrix(1, 0, 0, 1, 296, 21)"><g clip-path="url(#dc409ae231)"><g clip-path="url(#332f9e8c71)"><path fill="#001b3d" d="M 0.0859375 0.226562 L 26.894531 0.226562 L 26.894531 1319.160156 L 0.0859375 1319.160156 Z M 0.0859375 0.226562 " fill-opacity="1" fill-rule="nonzero"/></g></g></g></g></g></g></g><g mask="url(#f476412dc6)"><g transform="matrix(1, 0, 0, 1, 373, 180)"><g clip-path="url(#859ff36bbd)"><g clip-path="url(#2223ea5d42)"><g transform="matrix(1, 0, 0, 1, 1, 1)"><g clip-path="url(#0c3e4fde97)"><g clip-path="url(#79df993905)"><path fill="#001b3d" d="M 0.0078125 0.0390625 L 26.816406 0.0390625 L 26.816406 1318.972656 L 0.0078125 1318.972656 Z M 0.0078125 0.0390625 " fill-opacity="1" fill-rule="nonzero"/></g></g></g></g><g clip-path="url(#f227e3b31f)"><g transform="matrix(1, 0, 0, 1, 86, 31)"><g clip-path="url(#b933c44e86)"><g clip-path="url(#8bdb02e835)"><path fill="#001b3d" d="M 0.0585938 0.667969 L 26.867188 0.667969 L 26.867188 1319.601562 L 0.0585938 1319.601562 Z M 0.0585938 0.667969 " fill-opacity="1" fill-rule="nonzero"/></g></g></g></g><g clip-path="url(#24805de232)"><g transform="matrix(1, 0, 0, 1, 43, 13)"><g clip-path="url(#3fa50043aa)"><g clip-path="url(#222208100b)"><path fill="#001b3d" d="M 0.5 0.0390625 L 27.308594 0.0390625 L 27.308594 1318.972656 L 0.5 1318.972656 Z M 0.5 0.0390625 " fill-opacity="1" fill-rule="nonzero"/></g></g></g></g><g clip-path="url(#4748ce1939)"><g transform="matrix(1, 0, 0, 1, 125, 24)"><g clip-path="url(#8ef272c5d8)"><g clip-path="url(#3c0c7c2336)"><path fill="#001b3d" d="M 0.617188 0.289062 L 27.425781 0.289062 L 27.425781 1319.222656 L 0.617188 1319.222656 Z M 0.617188 0.289062 " fill-opacity="1" fill-rule="nonzero"/></g></g></g></g><g clip-path="url(#cc1d889bef)"><g transform="matrix(1, 0, 0, 1, 210, 54)"><g clip-path="url(#443a6b45db)"><g clip-path="url(#927f9446b6)"><path fill="#001b3d" d="M 0.667969 0.917969 L 27.476562 0.917969 L 27.476562 1319.851562 L 0.667969 1319.851562 Z M 0.667969 0.917969 " fill-opacity="1" fill-rule="nonzero"/></g></g></g></g><g clip-path="url(#c21e4cdbdb)"><g transform="matrix(1, 0, 0, 1, 168, 36)"><g clip-path="url(#9b36ee01f6)"><g clip-path="url(#85455bd59e)"><path fill="#001b3d" d="M 0.113281 0.289062 L 26.917969 0.289062 L 26.917969 1319.222656 L 0.113281 1319.222656 Z M 0.113281 0.289062 " fill-opacity="1" fill-rule="nonzero"/></g></g></g></g><g clip-path="url(#55209410ce)"><g transform="matrix(1, 0, 0, 1, 254, 9)"><g clip-path="url(#5154edf2c4)"><g clip-path="url(#4bdbe5c486)"><path fill="#001b3d" d="M 0.460938 0.226562 L 27.269531 0.226562 L 27.269531 1319.160156 L 0.460938 1319.160156 Z M 0.460938 0.226562 " fill-opacity="1" fill-rule="nonzero"/></g></g></g></g><g clip-path="url(#ebc0881dca)"><g transform="matrix(1, 0, 0, 1, 339, 39)"><g clip-path="url(#9aeae7fef1)"><g clip-path="url(#be7ffdbfbe)"><path fill="#001b3d" d="M 0.511719 0.855469 L 27.320312 0.855469 L 27.320312 1319.789062 L 0.511719 1319.789062 Z M 0.511719 0.855469 " fill-opacity="1" fill-rule="nonzero"/></g></g></g></g><g clip-path="url(#f1f488d0a5)"><g transform="matrix(1, 0, 0, 1, 296, 21)"><g clip-path="url(#2928bb1668)"><g clip-path="url(#5ca5c04e47)"><path fill="#001b3d" d="M 0.953125 0.226562 L 27.761719 0.226562 L 27.761719 1319.160156 L 0.953125 1319.160156 Z M 0.953125 0.226562 " fill-opacity="1" fill-rule="nonzero"/></g></g></g></g></g></g></g><g clip-path="url(#1d08a73f0f)"><g clip-path="url(#1a07f28e76)"><g transform="matrix(1, 0, 0, 1, 203, 0.000000000000112861)"><g clip-path="url(#85fb12b79c)"><g clip-path="url(#89dd5b271d)"><g clip-path="url(#132188a019)"><path fill="#ff9045" d="M 0.140625 -103.917969 L 537.050781 -103.917969 L 537.050781 432.992188 L 0.140625 432.992188 Z M 0.140625 -103.917969 " fill-opacity="1" fill-rule="nonzero"/></g></g></g></g></g></g><g mask="url(#a9b92544ad)"><g transform="matrix(1, 0, 0, 1, 205, 0.000000000000112861)"><g clip-path="url(#0f67d15c06)"><g clip-path="url(#8c51e5614e)"><g clip-path="url(#aa36689654)"><g transform="matrix(1, 0, 0, 1, 0, 0.000000000000112861)"><g clip-path="url(#e8ba4173bc)"><g clip-path="url(#502de8eb66)"><g clip-path="url(#4b0f883c70)"><path fill="#ffbd59" d="M 0.796875 -145.011719 L 537.707031 -145.011719 L 537.707031 391.894531 L 0.796875 391.894531 Z M 0.796875 -145.011719 " fill-opacity="1" fill-rule="nonzero"/></g></g></g></g></g></g></g></g></g><g clip-path="url(#5ffe08ea4a)"><g clip-path="url(#b803523f92)"><g transform="matrix(1, 0, 0, 1, 205, 0.000000000000112861)"><g clip-path="url(#7508754f9b)"><g clip-path="url(#63e124c5e2)"><g clip-path="url(#3f25f1ce6b)"><path fill="#ffde59" d="M 0.796875 -145.011719 L 538.644531 -145.011719 L 538.644531 336.417969 L 0.796875 336.417969 Z M 0.796875 -145.011719 " fill-opacity="1" fill-rule="nonzero"/></g></g></g></g></g></g></svg>